<?xml version="1.0" encoding="utf-8"?>
<!-- Generator: Adobe Illustrator 21.1.0, SVG Export Plug-In . SVG Version: 6.00 Build 0)  -->
<svg version="1.1" id="Layer_1" xmlns="http://www.w3.org/2000/svg" xmlns:xlink="http://www.w3.org/1999/xlink" x="0px" y="0px"
	 viewBox="0 0 736.5 394.5" style="enable-background:new 0 0 736.5 394.5;" xml:space="preserve">
<style type="text/css">
	.st0{fill:#FFFFFF;}
</style>
<g>
	<path class="st0" d="M123,175c0,17.1,0.2,34.2,0.5,51.1l-0.5,0.2c-11-15.4-21.8-30.3-33.3-45.7l-53.1-71.4H0v177h37.4v-65.8
		c0-17.1-0.2-34.2-0.5-51.1l0.5-0.2c11,15.4,21.8,30.3,33.3,45.7l53.1,71.4h36.7v-177H123V175z"/>
	<path class="st0" d="M688.3,181.1c-21.3-7.1-37.7-8.3-37.7-24c0-11.7,9.5-16.6,22.7-16.6c13.7,0,35.5,5.4,54.3,17.1v-38.4
		c-15.4-8.3-36.7-12.7-54-12.7c-37.2,0-62.1,20.5-62.1,53.6c0,30.8,22,42.8,46.5,50.9c22.7,7.3,39.4,8.8,39.4,25.2
		c0,13.2-10.5,18.8-24.7,18.8c-13.9,0-36.4-5.4-55.5-17.6v39.1c16.1,8.1,37.4,12.5,55,12.5c38.1,0,64.3-20.8,64.3-55.3
		C736.5,202.4,715,189.9,688.3,181.1z"/>
	<path class="st0" d="M384.9,82.7c1.9-0.1,3.8-0.1,5.7-0.1c2,0,3.9,0.1,5.9,0.1L398.9,0h-16.3L384.9,82.7z"/>
	<path class="st0" d="M390.6,311.9c-1.9,0-3.8-0.1-5.7-0.1l-2.4,82.7h16.3l-2.4-82.7C394.5,311.9,392.6,311.9,390.6,311.9z"/>
	<path class="st0" d="M276,197.3c0-2,0.1-3.9,0.1-5.9l-82.7-2.4v16.3l82.7-2.4C276.1,201.1,276,199.2,276,197.3z"/>
	<path class="st0" d="M505.4,197.3c0,1.9-0.1,3.8-0.1,5.7l82.7,2.4v-16.3l-82.7,2.4C505.4,193.4,505.4,195.4,505.4,197.3z"/>
	<path class="st0" d="M370.7,84.3c1.9-0.3,3.9-0.6,5.8-0.9l-12-81.8l-16.1,2.8l16.7,81C367,85,368.8,84.6,370.7,84.3z"/>
	<path class="st0" d="M410.5,310.2c-1.9,0.3-3.8,0.6-5.6,0.8l12,81.8l16.1-2.8l-16.7-81C414.4,309.5,412.5,309.9,410.5,310.2z"/>
	<path class="st0" d="M277.8,217.2c-0.3-1.9-0.6-3.9-0.9-5.8l-81.8,12l2.8,16.1l81-16.7C278.5,221,278.1,219.1,277.8,217.2z"/>
	<path class="st0" d="M503.7,177.4c0.3,1.9,0.6,3.8,0.8,5.6l81.8-12l-2.8-16l-81,16.7C503,173.6,503.3,175.5,503.7,177.4z"/>
	<path class="st0" d="M351.4,89.5c1.8-0.7,3.7-1.3,5.6-1.9L330.9,9.1l-15.3,5.6l30.5,76.9C347.8,90.8,349.6,90.1,351.4,89.5z"/>
	<path class="st0" d="M429.9,305c-1.8,0.7-3.6,1.3-5.4,1.8l26.1,78.5l15.3-5.6l-30.5-76.9C433.5,303.7,431.7,304.4,429.9,305z"/>
	<path class="st0" d="M283,236.5c-0.7-1.8-1.3-3.7-1.9-5.6l-78.5,26l5.6,15.3l76.9-30.5C284.3,240.1,283.6,238.3,283,236.5z"/>
	<path class="st0" d="M498.5,158.1c0.7,1.8,1.3,3.6,1.8,5.4l78.5-26.1l-5.6-15.3l-76.9,30.5C497.1,154.4,497.9,156.2,498.5,158.1z"
		/>
	<path class="st0" d="M333.3,98c1.7-1,3.4-1.9,5.2-2.8l-39.3-72.8L285,30.5l43.4,70.4C330,99.9,331.6,98.9,333.3,98z"/>
	<path class="st0" d="M448,296.6c-1.7,1-3.3,1.9-5,2.7l39.3,72.8l14.1-8.1L453,293.5C451.4,294.6,449.7,295.6,448,296.6z"/>
	<path class="st0" d="M291.4,254.7c-1-1.7-1.9-3.4-2.8-5.2l-72.8,39.3l8.1,14.1l70.4-43.4C293.4,257.9,292.4,256.3,291.4,254.7z"/>
	<path class="st0" d="M490.1,140c1,1.7,1.9,3.3,2.7,5l72.8-39.3l-8.2-14.1L487,135C488.1,136.6,489.1,138.3,490.1,140z"/>
	<path class="st0" d="M316.9,109.4c1.5-1.3,3-2.5,4.6-3.7l-51.3-64.9l-12.5,10.5l55,61.8C314,111.9,315.5,110.7,316.9,109.4z"/>
	<path class="st0" d="M464.4,285.2c-1.5,1.2-3,2.4-4.5,3.6l51.4,64.9l12.5-10.5l-55-61.8C467.4,282.6,465.9,283.9,464.4,285.2z"/>
	<path class="st0" d="M302.9,271c-1.3-1.5-2.5-3-3.7-4.6l-64.9,51.3l10.5,12.5l61.8-55C305.4,273.9,304.1,272.5,302.9,271z"/>
	<path class="st0" d="M478.6,123.6c1.2,1.5,2.4,3,3.5,4.5l64.9-51.4l-10.5-12.5l-61.8,55C476.1,120.6,477.4,122.1,478.6,123.6z"/>
	<path class="st0" d="M302.8,123.6c1.3-1.5,2.6-3,3.9-4.4l-61.8-55l-10.5,12.5l64.9,51.3C300.4,126.5,301.6,125,302.8,123.6z"/>
	<path class="st0" d="M478.5,271c-1.2,1.5-2.5,2.9-3.8,4.3l61.8,55l10.5-12.5l-64.9-51.3C481,268,479.8,269.5,478.5,271z"/>
	<path class="st0" d="M317.1,285.2c-1.5-1.3-3-2.6-4.4-3.9l-55,61.8l12.5,10.5l51.3-64.9C320,287.6,318.5,286.4,317.1,285.2z"/>
	<path class="st0" d="M464.5,109.4c1.5,1.2,2.9,2.5,4.3,3.8l55-61.8l-12.5-10.5l-51.3,64.9C461.5,107,463,108.2,464.5,109.4z"/>
	<path class="st0" d="M291.4,140c1-1.7,2-3.4,3.1-5L224,91.6l-8.1,14.1l72.8,39.3C289.5,143.3,290.4,141.6,291.4,140z"/>
	<path class="st0" d="M490,254.7c-1,1.7-1.9,3.3-3,4.9l70.4,43.4l8.1-14.1l-72.8-39.3C491.9,251.2,491,253,490,254.7z"/>
	<path class="st0" d="M333.5,296.6c-1.7-1-3.4-2-5-3.1L285.1,364l14.1,8.2l39.3-72.8C336.8,298.5,335.1,297.6,333.5,296.6z"/>
	<path class="st0" d="M448.2,97.9c1.6,1,3.3,2,4.9,3l43.4-70.4l-14.1-8.1L443,95.1C444.7,96,446.5,97,448.2,97.9z"/>
	<path class="st0" d="M282.9,158.1c0.7-1.8,1.4-3.7,2.1-5.5l-76.9-30.5l-5.6,15.3l78.5,26.1C281.7,161.7,282.3,159.9,282.9,158.1z"
		/>
	<path class="st0" d="M498.5,236.5c-0.7,1.8-1.4,3.6-2.1,5.3l76.9,30.5l5.6-15.3L500.4,231C499.8,232.8,499.2,234.7,498.5,236.5z"/>
	<path class="st0" d="M351.6,305c-1.9-0.7-3.7-1.4-5.5-2.1l-30.5,76.9l15.3,5.6l26.1-78.5C355.2,306.3,353.4,305.7,351.6,305z"/>
	<path class="st0" d="M430.1,89.5c1.8,0.7,3.6,1.4,5.3,2.1l30.5-76.9l-15.3-5.6l-26,78.5C426.3,88.2,428.2,88.8,430.1,89.5z"/>
	<path class="st0" d="M277.8,177.4c0.3-1.9,0.7-3.9,1.2-5.7l-81-16.7l-2.8,16l81.8,12C277.2,181.2,277.4,179.3,277.8,177.4z"/>
	<path class="st0" d="M503.7,217.2c-0.3,1.9-0.7,3.8-1.1,5.6l81,16.7l2.8-16l-81.8-12C504.3,213.4,504,215.3,503.7,217.2z"/>
	<path class="st0" d="M365.2,309l-16.7,81l16.1,2.8l12-81.8c-1.9-0.2-3.8-0.5-5.6-0.9C369,309.9,367.1,309.5,365.2,309z"/>
	<path class="st0" d="M416.3,85.4l16.7-81L417,1.6l-12,81.9c1.9,0.2,3.9,0.5,5.8,0.9C412.6,84.6,414.5,85,416.3,85.4z"/>
</g>
</svg>
